<svg id="Camada_1" data-name="Camada 1" xmlns="http://www.w3.org/2000/svg" xmlns:xlink="http://www.w3.org/1999/xlink" viewBox="0 0 499.56 196.18"><defs><style>.cls-1{fill:url(#Gradiente_sem_nome_34);}.cls-2{fill:#fff;}.cls-3{fill:#f6f6f6;}.cls-4{fill:url(#Gradiente_sem_nome_31);}.cls-5{fill:url(#Gradiente_sem_nome_31-2);}.cls-6{fill:url(#Gradiente_sem_nome_10);}.cls-7{fill:url(#Gradiente_sem_nome_34-2);}.cls-8{fill:#f1f2f2;}.cls-9{fill:url(#Gradiente_sem_nome_49);}.cls-10{fill:url(#Gradiente_sem_nome_49-2);}.cls-11{fill:url(#Gradiente_sem_nome_53);}.cls-12{fill:url(#Gradiente_sem_nome_45);}.cls-13{fill:url(#Gradiente_sem_nome_49-3);}.cls-14{fill:url(#Gradiente_sem_nome_49-4);}.cls-15{fill:url(#Gradiente_sem_nome_49-5);}.cls-16{fill:url(#Gradiente_sem_nome_49-6);}</style><linearGradient id="Gradiente_sem_nome_34" x1="13.1" y1="87.15" x2="166.03" y2="114.34" gradientUnits="userSpaceOnUse"><stop offset="0.11" stop-color="#00a651"/><stop offset="0.29" stop-color="#009148"/><stop offset="0.54" stop-color="#007a3f"/><stop offset="0.78" stop-color="#006d3a"/><stop offset="1" stop-color="#006838"/></linearGradient><linearGradient id="Gradiente_sem_nome_31" x1="54.71" y1="103.92" x2="98.35" y2="103.92" gradientUnits="userSpaceOnUse"><stop offset="0" stop-color="#39b54a"/><stop offset="0.03" stop-color="#36b049"/><stop offset="0.28" stop-color="#1e9142"/><stop offset="0.52" stop-color="#0e7a3c"/><stop offset="0.75" stop-color="#036d39"/><stop offset="0.95" stop-color="#006838"/></linearGradient><linearGradient id="Gradiente_sem_nome_31-2" x1="54.24" y1="133.98" x2="112.48" y2="133.98" xlink:href="#Gradiente_sem_nome_31"/><linearGradient id="Gradiente_sem_nome_10" x1="98.52" y1="114.67" x2="123.01" y2="114.67" gradientUnits="userSpaceOnUse"><stop offset="0" stop-color="#00a651"/><stop offset="0.2" stop-color="#009148"/><stop offset="0.48" stop-color="#007a3f"/><stop offset="0.74" stop-color="#006d3a"/><stop offset="0.97" stop-color="#006838"/></linearGradient><linearGradient id="Gradiente_sem_nome_34-2" x1="33.53" y1="63.92" x2="144.63" y2="63.92" xlink:href="#Gradiente_sem_nome_34"/><linearGradient id="Gradiente_sem_nome_49" x1="162.12" y1="141.49" x2="214.4" y2="141.49" gradientUnits="userSpaceOnUse"><stop offset="0" stop-color="#7f3f98"/><stop offset="0.16" stop-color="#783a96"/><stop offset="0.61" stop-color="#6b3092"/><stop offset="1" stop-color="#662d91"/></linearGradient><linearGradient id="Gradiente_sem_nome_49-2" x1="222.63" y1="141.49" x2="274.91" y2="141.49" xlink:href="#Gradiente_sem_nome_49"/><linearGradient id="Gradiente_sem_nome_53" x1="304.1" y1="49.1" x2="376.72" y2="58.14" gradientUnits="userSpaceOnUse"><stop offset="0" stop-color="#a7cf47"/><stop offset="0.13" stop-color="#9eb058"/><stop offset="0.31" stop-color="#93886f"/><stop offset="0.5" stop-color="#8a6881"/><stop offset="0.68" stop-color="#84518e"/><stop offset="0.85" stop-color="#804495"/><stop offset="1" stop-color="#7f3f98"/></linearGradient><linearGradient id="Gradiente_sem_nome_45" x1="336.31" y1="21.6" x2="351.77" y2="29.64" gradientUnits="userSpaceOnUse"><stop offset="0" stop-color="#8ac244"/><stop offset="0.08" stop-color="#88b04f"/><stop offset="0.28" stop-color="#858869"/><stop offset="0.47" stop-color="#82687e"/><stop offset="0.66" stop-color="#81518c"/><stop offset="0.84" stop-color="#7f4495"/><stop offset="1" stop-color="#7f3f98"/></linearGradient><linearGradient id="Gradiente_sem_nome_49-3" x1="297.62" y1="142.69" x2="327.51" y2="142.69" xlink:href="#Gradiente_sem_nome_49"/><linearGradient id="Gradiente_sem_nome_49-4" x1="334.59" y1="142.69" x2="355.59" y2="142.69" xlink:href="#Gradiente_sem_nome_49"/><linearGradient id="Gradiente_sem_nome_49-5" x1="359.1" y1="142.69" x2="418.93" y2="142.69" xlink:href="#Gradiente_sem_nome_49"/><linearGradient id="Gradiente_sem_nome_49-6" x1="418.2" y1="142.69" x2="492.35" y2="142.69" xlink:href="#Gradiente_sem_nome_49"/></defs><title>APP LIXO LOGO 8</title><path class="cls-1" d="M165.3,36.38c-1.4-4.77-7.39-8.53-11.86-10.2-4.81-1.8-10.32-.22-15.46-.9-2-.27-5.1-2.09-5.69-4.16C128.81,9,126.11,5.14,117,5Q87.6,4.4,58.17,5c-8,.16-13,4.95-13.35,12.63-.27,6.68-3.13,7.56-6.93,7.81-3.15.2-6.31.07-9.47.1C12.69,25.7,9.7,29.89,11.16,52.11c4.31,0,8.31.27,12.27-.06,5.7-.49,7.75,2.11,7.69,10-.31,39.3-.15,78.6-.14,117.91,0,10.47,1.58,12.62,9.86,12.77s16.56.06,24.85,0c1.6-10.32,10.94-18.23,22.21-18.23s20.61,7.92,22.21,18.24q12,0,24.09-.05c10.12,0,11.29-1.65,11.3-14.33q0-56.33,0-112.66c0-13.55,0-13.55,10.17-13.61S168.83,48.43,165.3,36.38ZM138.9,70.76q-.28,42.3,0,84.61c0,6.1-1.67,8.11-6.31,8-14.64-.26-29.28-.09-43.92-.09s-29.28-.26-43.91.13c-5.37.15-7-2.31-7-9.05q.28-41.86,0-83.73a17.17,17.17,0,0,1,.43-4.42c.8-3,2.76-4.09,6.33-4.07q43.9.33,87.83,0c3.59,0,5.42,1.11,6.15,4.07A18.7,18.7,0,0,1,138.9,70.76Zm-1-15.85c.24.08.48.17.72.24l-.06.44c-.12.81-.23,1.62-.35,2.43H39.49c-.14-.73-.29-1.46-.43-2.19,1.73-.75,3.47-2.15,5.21-2.16q44.61-.21,89.23,0a13.43,13.43,0,0,1,4.42,1.27Z"/><path class="cls-2" d="M138.24,76.06H39.49l-.44-1.66c1.74-.57,3.48-1.63,5.22-1.63q44.61-.15,89.23,0c1.72,0,3.43.74,5.15,1.14Z"/><rect class="cls-3" x="36.36" y="52.96" width="104.01" height="110.99" rx="7.49"/><path class="cls-4" d="M54.71,123.25C57.6,116,60.46,108.74,64.57,102c3-4.87,6.09-9.71,10.76-13.37,5.31-4.15,11-5.68,17.74-3.21,4.17,1.51,6.75,7.26,4.37,11.63-.65,1.2-6.7,5.59-6.41,5.45a115.71,115.71,0,0,1-14,5.06c-7.34,2.38-13.58,6.08-18.2,12.14a49.18,49.18,0,0,1-3.63,3.89Z"/><path class="cls-5" d="M112.48,142.66a116,116,0,0,1-15,2.42c-8.51.85-17,1.25-25.49-.33-5.7-1.07-11.16-2.86-14.82-7.67a15.12,15.12,0,0,1-2.78-6.46c-1-5.45,4.82-9.76,11-8.16a32.43,32.43,0,0,1,9.59,4.7c3.42,2.26,6.86,4.48,10.18,6.86,7,5,15,7.22,23.54,8.06C109.91,142.21,111.19,142.47,112.48,142.66Z"/><path class="cls-6" d="M98.52,88c1-.27,1.38,0,1.69.36,8,9.52,15.93,19.06,20.5,30.64,2,5.07,3.45,10.36,1,15.6-2.86,6.18-7.09,8.25-12.7,5.8-5.09-2.23-6.22-6.66-6.18-11.38a91.78,91.78,0,0,1,1-12.27C105.22,106.68,103.91,97.07,98.52,88Z"/><rect class="cls-7" x="33.53" y="61.61" width="111.11" height="4.63"/><rect class="cls-8" x="52.79" y="14.85" width="69.74" height="8.15" rx="3.6"/><path class="cls-9" d="M186.53,157.55V132.28q6.36,0,6.36-6.64,0-6.08-4.86-6.07t-4.92,8.33v63h-21v-60a70.44,70.44,0,0,1,1.37-15.29,34.73,34.73,0,0,1,4.68-11.12,28.15,28.15,0,0,1,9.31-9A22.19,22.19,0,0,1,189,92.11q10.76,0,18.07,9.88t7.32,24.5q0,14.19-6.57,23-6,8.13-18.1,8.12Z"/><path class="cls-10" d="M247,157.55V132.28q6.36,0,6.36-6.64,0-6.08-4.86-6.07t-4.91,8.33v63h-21v-60A70.44,70.44,0,0,1,224,115.58a35.19,35.19,0,0,1,4.68-11.12,28.34,28.34,0,0,1,9.31-9,22.22,22.22,0,0,1,11.53-3.32q10.75,0,18.07,9.88t7.32,24.5q0,14.19-6.57,23-6,8.13-18.09,8.12Z"/><path class="cls-11" d="M307.35,24.17c4.55,6.27,11.11,8.49,18.1,10,3.9.82,7.13,3.26,10.53,5.21,5.53,3.17,11,3.21,16.36-.14a46.07,46.07,0,0,1,15.4-6.41,21.86,21.86,0,0,0,11.17-6.45c.5-.5.81-1.3,1.94-1.39-2.36,7.21-6,13.16-12.77,16.64-4.54,2.35-8.59,5.11-11.19,9.81-1.73,3.11-1.88,6.49-2.23,9.84a112.75,112.75,0,0,1-1.46,12.13c-1.2,5.56-4.19,9.91-8.1,13.79-1.29,1.27-2,.16-2.66-.53-5-4.92-7.6-11-8.38-18-.45-4-.44-8.14-1.3-12.16a18.24,18.24,0,0,0-9.86-13.08c-7.64-3.81-12.91-9.46-15.49-17.71-.1-.32-.19-.64-.26-1C307.13,24.62,307.2,24.53,307.35,24.17Z"/><path class="cls-12" d="M343.78,34.37a8.74,8.74,0,0,1,.46-17.48,8.59,8.59,0,0,1,8.4,9.12A8.45,8.45,0,0,1,343.78,34.37Z"/><path class="cls-13" d="M297.62,94.51h21v57.25q0,6.7,1.57,8.93c1.06,1.49,3.13,2.23,6.23,2.23h1.09v28h-5.58q-11.49,0-17.89-9.14t-6.42-25.38Z"/><path class="cls-14" d="M355.59,94.51v96.36h-21V94.51Z"/><path class="cls-15" d="M418.31,94.51,400,141.38l19,49.49H396.85l-8.69-23.36-7.34,23.36H359.1l19.39-48.71L360.14,94.51H382l8.22,21.88,6.62-21.88Z"/><path class="cls-16" d="M455.9,92.11q15,0,25.72,14.89t10.73,35.66q0,21.1-10.8,35.86t-26.27,14.75q-15.36,0-26.22-14.82T418.2,142.66q0-21.18,10.94-35.87T455.9,92.11Zm-.62,28.38q-6.46,0-11,6.49a26.59,26.59,0,0,0-4.55,15.68,26.52,26.52,0,0,0,4.57,15.67q4.57,6.49,11,6.49t11-6.46a26.71,26.71,0,0,0,4.52-15.7A26.72,26.72,0,0,0,466.32,127Q461.79,120.49,455.28,120.49Z"/></svg>